<svg xmlns="http://www.w3.org/2000/svg" viewBox="0 0 64 64" fill="none">
  <defs>
    <linearGradient id="g1" x1="0" y1="0" x2="64" y2="64" gradientUnits="userSpaceOnUse">
      <stop offset="0%" stop-color="#6366f1"/>
      <stop offset="100%" stop-color="#818cf8"/>
    </linearGradient>
    <linearGradient id="g2" x1="16" y1="16" x2="48" y2="48" gradientUnits="userSpaceOnUse">
      <stop offset="0%" stop-color="#a5b4fc"/>
      <stop offset="100%" stop-color="#6366f1"/>
    </linearGradient>
  </defs>
  <rect width="64" height="64" rx="16" fill="url(#g1)"/>
  <path d="M20 22c0-2.2 1.8-4 4-4h16c2.2 0 4 1.8 4 4v14c0 2.2-1.8 4-4 4H30l-6 6v-6h-4c-2.2 0-4-1.8-4-4V22z" fill="white" fill-opacity="0.95"/>
  <circle cx="27" cy="29" r="2.5" fill="url(#g2)"/>
  <circle cx="37" cy="29" r="2.5" fill="url(#g2)"/>
  <path d="M27 34c0 0 2 3 5 3s5-3 5-3" stroke="url(#g2)" stroke-width="2" stroke-linecap="round" fill="none"/>
</svg>
